PathFileType	4	(X/Y/Z)	C:/Users/beibeiliu/ov580/test_trc/User3\sequence.30_training_dense_left.trc
DataRate	CameraRate	NumFrames	NumMarkers	Units	OrigDataRate	OrigDataStartFrame	OrigNumFrames
120	120	19	19	mm	120	60	239
Frame#	Time	ThumbCMC			ThumbMCP			ThumbIP			ThumbTip			IndexMCP			IndexPIP			IndexTip			MiddleMCP			MiddlePIP			MiddleTip			RingMCP			RingPIP			RingTip			PinkyMCP			PinkyPIP			PinkyTip			BackHand1			BackHand2			BackHand3	
		X0	Y0	Z0	X1	Y1	Z1	X2	Y2	Z2	X3	Y3	Z3	X4	Y4	Z4	X5	Y5	Z5	X6	Y6	Z6	X7	Y7	Z7	X8	Y8	Z8	X9	Y9	Z9	X10	Y10	Z10	X11	Y11	Z11	X12	Y12	Z12	X13	Y13	Z13	X14	Y14	Z14	X15	Y15	Z15	X16	Y16	Z16	X17	Y17	Z17	X18	Y18	Z18	
59	0.491667	-218.11	0.503684	-7.81749	-185.124	15.3558	-22.9639	-155.55	11.7312	-32.521	-135.79	-7.46088	-29.6634	-194.244	-15.3018	-83.9643	-185.495	-4.53804	-107.94	-172.302	1.96355	-123.88	-175.321	-40.2393	-79.3935	-165.748	-35.6385	-103.281	-144.983	-29.756	-128.478	-158.301	-45.3964	-62.6749	-141.868	-41.0825	-83.7996	-120.194	-35.8065	-101.111	-147.753	-47.5201	-36.2814	-124.405	-38.5406	-53.2374	-109.951	-23.5603	-58.6571	-189.659	-58.3773	-19.0508	-204.653	-63.6019	3.34215	-222.664	-38.1052	-24.6973	
60	0.5	-218.172	1.06507	-7.5092	-185.726	15.8832	-22.4819	-151.67	9.67743	-33.4972	-138.709	-10.3072	-27.2826	-193.933	-15.1835	-77.5383	-183.599	-6.56332	-103.723	-167.776	5.17216	-126.306	-179.188	-35.4412	-79.44	-165.595	-33.4256	-102.116	-147.909	-23.9064	-133.058	-160.071	-44.5135	-61.8552	-142.261	-43.402	-82.5464	-126.469	-36.5642	-100.993	-148.765	-45.93	-38.4858	-128.801	-44.4029	-52.2418	-111.359	-40.9179	-66.0841	-189.363	-54.2666	-24.3343	-206.504	-60.5026	3.787	-217.77	-38.765	-21.8198	
61	0.508333	-217.637	1.48571	-8.63056	-185.196	18.8161	-22.3651	-153.629	12.985	-30.2839	-135.826	-11.2094	-24.4888	-191.19	-15.7742	-77.3541	-181.38	-5.66765	-104.406	-170.965	8.58566	-124.952	-175.951	-34.3398	-80.0663	-161.529	-31.5684	-105.053	-145.711	-22.177	-131.491	-157.776	-44.4236	-58.9413	-143.927	-42.2916	-82.9801	-123.01	-38.1144	-101.788	-144.669	-47.9378	-37.7781	-129.121	-45.5688	-53.3237	-114.527	-43.2813	-67.9097	-186.129	-53.9197	-23.4646	-202.64	-59.6407	1.22546	-222.655	-37.4116	-23.2973	
62	0.516667	-219.55	0.938377	-7.29607	-186.927	18.8218	-24.0488	-158.869	14.2389	-28.7104	-140.545	-9.53167	-22.8855	-191.445	-12.9001	-80.2963	-183.804	-3.4607	-103.326	-167.825	10.0646	-124.69	-175.726	-32.422	-77.6374	-162.791	-27.501	-106.122	-144.285	-21.8826	-129.127	-157.387	-42.3059	-60.8278	-146.084	-40.4852	-82.4214	-124.137	-35.6225	-103.388	-146.123	-45.5939	-36.3567	-128.997	-45.2291	-51.0725	-112.705	-47.0171	-67.2799	-190.843	-53.5711	-20.6922	-204.456	-58.2431	1.18838	-219.684	-37.1459	-23.0726	
63	0.525	-221.819	-0.537008	-7.92836	-196.95	21.7474	-25.2488	-166.867	19.7717	-32.7183	-146.231	0.948637	-25.767	-192.749	-10.6436	-78.4341	-183.834	0.0648277	-104.651	-172.524	13.5433	-125.029	-173.562	-31.1579	-78.1563	-163.513	-25.9492	-102.349	-146.843	-15.8695	-129.898	-159.365	-38.8178	-58.0066	-144.515	-36.6822	-82.6417	-125.279	-33.6253	-100.883	-148.166	-42.2507	-34.8431	-127.596	-42.879	-47.6877	-112.332	-41.2778	-66.025	-189.723	-50.9288	-22.0049	-201.393	-62.9858	3.61636	-219.514	-37.4433	-25.6116	
64	0.533333	-225.733	-5.323	-11.3419	-213.305	22.339	-28.2961	-180.409	29.5127	-43.5863	-158.292	18.7084	-35.764	-191.569	-11.5082	-80.751	-184.129	0.187222	-106.022	-176.833	12.8109	-123.264	-175.449	-30.9074	-78.2317	-160.255	-26.7044	-104.047	-143.644	-18.3093	-129.613	-155.378	-40.363	-59.2988	-142.119	-37.533	-79.7368	-123.677	-31.1019	-100.688	-145.055	-39.783	-35.421	-124.448	-39.5745	-46.6149	-104.86	-38.9707	-56.5374	-186.952	-52.7306	-21.7471	-200.758	-60.5721	2.50794	-218.437	-37.3101	-24.0503	
65	0.541667	-230.557	-8.9369	-12.9464	-222.603	16.0433	-36.1683	-204.11	31.581	-47.8816	-176.565	33.8944	-52.8592	-194.597	-15.5465	-76.9602	-184.045	-4.58982	-104.757	-174.801	7.65031	-127.14	-174.122	-33.669	-77.6619	-157.506	-31.5546	-101.318	-142.374	-25.8773	-124.719	-155.824	-37.8655	-60.1991	-137.747	-36.2488	-79.4035	-117.541	-31.2041	-95.9214	-139.988	-37.8818	-35.3066	-119.04	-34.4695	-40.3624	-102.467	-27.2019	-55.131	-186.392	-53.4833	-18.762	-196.775	-64.3018	1.64786	-216.613	-43.5592	-22.5812	
66	0.55	-234.786	-11.1045	-14.0056	-234.032	12.1376	-35.3698	-218.348	30.5468	-54.9343	-198.805	43.4201	-66.6732	-196.656	-18.3672	-76.6513	-188.459	-9.6399	-104.009	-179.221	1.66804	-127.078	-171.721	-37.4854	-76.2921	-162.877	-33.7342	-98.5695	-141.629	-27.7278	-126.551	-152.519	-37.9766	-57.763	-133.012	-35.5875	-74.2885	-116.377	-25.3767	-90.0235	-140.513	-36.6079	-29.679	-121.458	-25.2211	-38.2059	-100.32	-14.4953	-43.2666	-187.299	-55.742	-19.03	-196.835	-62.9575	3.70655	-218.325	-45.5872	-22.2262	
67	0.558333	-237.537	-13.6116	-15.4685	-236.317	8.37402	-34.5212	-229.739	28.6177	-58.2561	-213.727	41.8725	-72.3095	-194.512	-23.4629	-76.4212	-190.057	-16.0542	-102.875	-182.909	-8.59368	-127.012	-170.79	-39.1618	-72.9871	-157.05	-36.954	-98.3441	-139.526	-31.8472	-122.026	-151.399	-37.0939	-55.2009	-129.644	-27.6248	-72.2413	-111.643	-12.7967	-84.2086	-136.751	-31.505	-29.4151	-120.021	-16.494	-33.741	-105.695	2.45835	-39.4155	-186.429	-58.7028	-18.5976	-198.505	-62.7587	3.81378	-218.385	-46.5491	-22.0452	
68	0.566667	-238.678	-15.1685	-14.2499	-238.653	6.14994	-34.8141	-234.326	22.425	-55.4429	-229.393	40.0962	-73.7524	-195.454	-26.3446	-78.722	-189.034	-22.6676	-106.619	-180.325	-18.996	-126.659	-168.997	-41.5	-72.0268	-154.041	-38.0099	-93.2579	-137.75	-30.1052	-119.482	-152.021	-34.9078	-52.6127	-129.357	-21.5773	-65.8167	-110.242	-3.6007	-71.2752	-137.066	-30.15	-24.2927	-124.988	-10.2728	-29.8625	-116.213	10.6073	-32.8809	-184.818	-58.204	-20.1306	-198.063	-67.0887	6.41273	-216.407	-47.6827	-21.2323	
69	0.575	-236.358	-17.8723	-12.1014	-236.729	3.06633	-36.6292	-238.598	20.2305	-58.7056	-237.582	36.2142	-73.7743	-198.214	-28.0806	-78.6125	-189.031	-26.5099	-105.094	-181.147	-25.0267	-126.418	-164.801	-40.7249	-72.6041	-150.299	-36.861	-91.3456	-130.423	-25.5116	-117.273	-147.37	-32.4569	-48.2931	-128.336	-17.3261	-58.5494	-114.951	8.41492	-63.0612	-137.691	-27.2408	-23.0754	-129.91	-5.94683	-26.0801	-123.506	15.2283	-23.6266	-185.589	-61.622	-15.2696	-200.134	-67.147	11.6029	-217.545	-48.8899	-19.5643	
70	0.583333	-239.321	-17.0079	-13.7561	-234.97	0.145172	-34.5102	-239.895	18.1327	-59.0806	-240.288	32.0722	-76.72	-197.874	-29.7471	-77.6125	-193.682	-27.9506	-99.8503	-180.543	-28.7445	-127.244	-167.492	-37.0789	-70.9267	-147.715	-31.1777	-89.5217	-129.857	-15.0721	-112.174	-147.623	-30.8294	-45.9533	-129.441	-6.10405	-55.4811	-117.67	21.8166	-51.1696	-138.63	-24.7228	-21.4679	-131.935	-4.88428	-18.8476	-133.956	23.0561	-19.2644	-183.638	-61.4508	-16.3534	-204.197	-64.383	8.91912	-218.911	-48.7187	-18.8909	
71	0.591667	-237.876	-17.2688	-16.4975	-239.391	0.313072	-33.302	-238.505	15.1421	-59.0345	-243.098	30.2695	-76.9669	-192.707	-31.2622	-75.8824	-188.772	-29.0178	-102.259	-180.122	-29.7569	-126.745	-165.928	-35.9126	-69.6488	-147.841	-23.0177	-89.1677	-123.999	-1.30319	-106.002	-148.589	-24.9588	-46.508	-133.289	-5.64161	-49.4131	-124.003	27.4126	-40.546	-142.937	-28.6227	-19.8866	-136.493	-2.39792	-19.4427	-138.135	24.46	-15.5882	-184.269	-60.6955	-17.6138	-202.927	-66.3027	8.39964	-221.146	-47.5069	-21.9668	
72	0.6	-240.915	-16.8482	-12.1693	-238.257	-0.906265	-34.3284	-242.388	13.7321	-60.2445	-240.607	25.5399	-78.6025	-193.86	-31.6872	-76.149	-187.674	-30.6096	-99.7171	-181.691	-29.1013	-123.424	-161.532	-32.2894	-69.2378	-141.23	-15.1628	-84.0461	-123.239	9.82026	-92.0981	-149.033	-24.7055	-43.6113	-134.91	1.02703	-45.6357	-131.481	30.3182	-34.2974	-146.417	-28.4731	-23.1909	-137.192	-4.29007	-18.5788	-137.941	21.9423	-9.59872	-186.483	-63.6274	-15.0557	-207.127	-67.0452	10.3888	-220.878	-49.0056	-18.4527	
73	0.608333	-239.303	-18.0381	-11.2722	-233.937	-4.17467	-37.1195	-237.418	11.1232	-64.3241	-242.113	24.0527	-78.2606	-195.478	-29.9803	-75.0092	-188.763	-27.3619	-102.007	-174.626	-26.2245	-125.407	-164.452	-27.8352	-67.7238	-143.934	-10.0624	-78.1408	-123.44	22.8442	-78.1762	-152.706	-25.109	-43.4305	-138.08	3.81964	-41.6427	-133.945	30.3757	-26.5716	-144.676	-26.4685	-23.9379	-136.527	-4.33421	-16.4791	-143.769	21.3222	-9.23617	-188.627	-61.2271	-18.9523	-201.845	-68.0244	8.50296	-219.881	-48.7337	-20.1548	
74	0.616667	-236.264	-18.9396	-11.8533	-236.949	-3.26517	-37.4494	-235.8	9.85488	-65.3639	-241.582	21.9748	-79.3889	-192.511	-28.0114	-75.9005	-182.797	-23.8052	-100.615	-172.554	-16.3839	-124.368	-161.915	-23.535	-67.6116	-143.274	-2.15931	-72.6283	-130.427	29.6924	-67.6646	-154.469	-24.8101	-42.9241	-136.15	3.55008	-38.0746	-134.9	25.1206	-24.9868	-143.677	-29.5545	-22.1071	-138.871	-8.57737	-18.7684	-141.657	17.5169	-9.31826	-187.374	-62.524	-14.0602	-208.149	-67.6597	7.3601	-222.057	-48.0258	-20.1394	
75	0.625	-237.885	-16.8233	-14.2146	-233.154	-2.9734	-37.7148	-236.194	9.1004	-62.9529	-237.56	21.751	-79.9471	-188.804	-26.768	-75.8801	-176.249	-16.5218	-101.096	-166.789	-4.36865	-121.224	-162.41	-20.8386	-65.1869	-142.746	3.03757	-67.4717	-131.549	36.8585	-52.847	-150.154	-23.2924	-40.4038	-138.96	3.21221	-39.257	-134.064	30.2107	-19.8978	-146.295	-30.7313	-22.5661	-135.673	-8.70544	-17.3756	-139.103	17.7478	-11.3483	-188.143	-60.0087	-21.2326	-208.702	-66.7262	8.24627	-221.9	-49.7313	-18.1009	
76	0.633333	-236.641	-16.3803	-16.3883	-234.097	-2.88799	-37.3341	-230.784	7.82913	-63.8149	-236.24	20.8325	-81.8179	-192.34	-21.5024	-76.104	-177.782	-9.43219	-99.9758	-159.949	3.86437	-113.895	-160.538	-17.3954	-64.5201	-142.411	6.87495	-63.5395	-137.127	37.8257	-47.4873	-152.992	-22.3087	-42.9216	-135.893	4.00649	-35.794	-134.501	26.7089	-20.247	-142.41	-29.4442	-22.4592	-135.225	-8.57653	-18.3223	-136.57	20.5547	-10.6112	-189.08	-60.5895	-16.9811	-202.615	-69.0038	6.22004	-219.077	-49.5866	-22.2083	
77	0.641667	-233.731	-17.3191	-11.7876	-229.221	-3.6257	-37.1111	-231.222	10.2342	-63.3886	-232.281	20.8133	-80.0475	-187.419	-20.5924	-75.1683	-173.101	-5.22105	-97.6511	-154.334	12.7385	-109.905	-162.276	-15.9442	-63.6753	-146.152	9.60506	-62.0092	-139.514	37.226	-37.9379	-150.339	-20.5425	-41.5319	-136.017	5.61022	-34.0444	-136.153	30.5698	-16.9429	-143.088	-27.1955	-25.0385	-135.64	-4.48903	-19.5321	-139.181	17.1468	-11.3034	-186.743	-62.845	-19.3246	-203.409	-67.1588	7.84251	-218.237	-49.3283	-21.4999	
